<svg xmlns="http://www.w3.org/2000/svg" xmlns:xlink="http://www.w3.org/1999/xlink" viewBox="0 0 1366 768"><defs><style>.cls-1{isolation:isolate;}.cls-2{fill:url(#linear-gradient);}.cls-3{fill:#a8b2e5;opacity:0.4;}.cls-14,.cls-3,.cls-4{mix-blend-mode:multiply;}.cls-4{fill:#476dcf;}.cls-14,.cls-4{opacity:0.31;}.cls-5{fill:url(#linear-gradient-2);}.cls-6{fill:#3b6bd9;}.cls-7{fill:#fcfeff;opacity:0.27;}.cls-8{fill:#2f6ad6;}.cls-9{fill:#2b60c2;}.cls-10{fill:#6094f5;}.cls-11{fill:#4c87f5;}.cls-12{fill:#85b0ff;}.cls-13{fill:#b8d1ff;}.cls-14{fill:#2e4787;}.cls-15{fill:#f0f5ff;}.cls-16{fill:#99b8ff;}.cls-17{fill:#356de6;}.cls-18{fill:#cfdeff;}.cls-19{fill:#3071ff;}.cls-20,.cls-27,.cls-29{fill:none;stroke-linecap:round;stroke-linejoin:round;}.cls-20,.cls-29{stroke:#fff;}.cls-20{stroke-width:0.95px;}.cls-21,.cls-22,.cls-24,.cls-26{fill:#fff;}.cls-21{opacity:0.28;}.cls-22,.cls-24{stroke:#35519c;stroke-miterlimit:10;}.cls-22{stroke-width:0.57px;}.cls-23{fill:#0e2e82;}.cls-24{stroke-width:0.59px;}.cls-25{fill:#3e62d4;}.cls-27{stroke:#b8ccff;stroke-width:3.66px;}.cls-28{fill:#3072ff;}.cls-29{stroke-width:2.04px;}.cls-30{fill:url(#linear-gradient-3);}.cls-31{fill:#ed9845;}.cls-32,.cls-33{fill:#aa5509;}.cls-33{opacity:0.37;}.cls-34{fill:#ffa664;}.cls-35{fill:#d37b33;}.cls-36{fill:#ffe0c9;opacity:0.18;}.cls-37{fill:#ebf5ff;}.cls-38{fill:#eb984e;}.cls-39{fill:#ffac61;}.cls-40{fill:#214bb8;}.cls-41{fill:#3864d6;}.cls-42{fill:#e1eaf4;}.cls-43{fill:#a1b8ed;}.cls-44{fill:#a6bef5;}</style><linearGradient id="linear-gradient" x1="656.81" y1="825.78" x2="1413.13" y2="279.97" gradientUnits="userSpaceOnUse"><stop offset="0.2" stop-color="#386af0"/><stop offset="0.26" stop-color="#4073f4"/><stop offset="0.38" stop-color="#4a7efb"/><stop offset="0.54" stop-color="#5085fe"/><stop offset="1" stop-color="#5287ff"/></linearGradient><linearGradient id="linear-gradient-2" x1="947.08" y1="242.03" x2="1090.73" y2="242.03" gradientUnits="userSpaceOnUse"><stop offset="0.04" stop-color="#7da6ff"/><stop offset="0.25" stop-color="#76a0fb"/><stop offset="0.57" stop-color="#618eef"/><stop offset="0.95" stop-color="#4072dd"/><stop offset="1" stop-color="#3b6dda"/></linearGradient><linearGradient id="linear-gradient-3" x1="873.42" y1="225.62" x2="928.9" y2="321.73" gradientTransform="matrix(1, 0.05, -0.05, 1, -40.15, 19.42)" gradientUnits="userSpaceOnUse"><stop offset="0.04" stop-color="#e29439"/><stop offset="0.83" stop-color="#e17500"/></linearGradient></defs><g class="cls-1"><g id="Layer_1" data-name="Layer 1"><path class="cls-2" d="M443.08,767.18S358,564.06,795.77,389.58C1079.52,276.48,966.79,8.79,1296,0h49.48a21.23,21.23,0,0,1,21.23,21.24V745.75A22.24,22.24,0,0,1,1344.48,768Z"/><path class="cls-3" d="M1259.43,518.71a14.75,14.75,0,0,0-3.43-2.59L999.55,373.73c-9.22-5.12-25.44-4-36.22,2.61l-353.42,215a28.24,28.24,0,0,0-3.25,2.32L605,594.91a10.41,10.41,0,0,0-4,8.42l0,1.55c.45,2.9,2.43,5.58,6,7.59L863.53,754.86c9.22,5.12,25.43,3.95,36.22-2.62l353.41-215c5.6-3.41,8.61-7.6,8.95-11.56l-.67-3.91Z"/><ellipse class="cls-4" cx="1070.34" cy="338.15" rx="77.37" ry="28.86"/><path class="cls-5" d="M1090.73,174.7c0-29.09-32.15-52.67-71.82-52.67s-71.83,23.58-71.83,52.67V304.82h.27a40.24,40.24,0,0,0-.27,4.54c0,29.09,32.16,52.68,71.83,52.68s71.82-23.59,71.82-52.68a39,39,0,0,0-.54-6.5S1090.73,176.9,1090.73,174.7Z"/><ellipse class="cls-6" cx="1018.91" cy="325.03" rx="55.76" ry="26.28"/><path class="cls-7" d="M985.2,312.05l-10.56-2.58c-7.78-1.91-14.14-10.4-14.14-18.88V190c0-8.47,6.36-13.84,14.14-11.94l10.56,2.59c7.78,1.9,14.14,10.4,14.14,18.87V300.11C999.34,308.58,993,314,985.2,312.05Z"/><ellipse class="cls-8" cx="1020.45" cy="128.2" rx="39.78" ry="20.35"/><path class="cls-9" d="M1060.23,128.2c0,11.24-17.81,20.35-39.78,20.35l-7.92-.41c23.07-4.84,35.22-16.14,34.37-35.14C1055.07,116.73,1060.23,122.16,1060.23,128.2Z"/><ellipse class="cls-10" cx="1020.45" cy="125.21" rx="35.97" ry="18.32"/><rect class="cls-10" x="984.48" y="101.87" width="71.95" height="23.35"/><path class="cls-11" d="M1020.45,143.54c19.87,0,36-8.21,36-18.33V101.87C1048.6,121.8,1037.34,136.75,1020.45,143.54Z"/><ellipse class="cls-12" cx="1020.45" cy="101.87" rx="35.97" ry="18.32"/><ellipse class="cls-13" cx="1021.02" cy="100.42" rx="21.94" ry="11.18"/><path class="cls-13" d="M988.72,129.8h0a1.54,1.54,0,0,1-1.54-1.54V115.08a1.54,1.54,0,0,1,1.54-1.54h0a1.54,1.54,0,0,1,1.54,1.54v13.18A1.54,1.54,0,0,1,988.72,129.8Z"/><path class="cls-13" d="M996.12,134.57h0a1.54,1.54,0,0,1-1.54-1.54V119.85a1.54,1.54,0,0,1,1.54-1.54h0a1.54,1.54,0,0,1,1.54,1.54V133A1.54,1.54,0,0,1,996.12,134.57Z"/><path class="cls-13" d="M1003.83,137.47h0a1.55,1.55,0,0,1-1.55-1.54V122.75a1.55,1.55,0,0,1,1.55-1.54h0a1.55,1.55,0,0,1,1.54,1.54v13.18A1.55,1.55,0,0,1,1003.83,137.47Z"/><path class="cls-13" d="M1012.53,139.67h0a1.54,1.54,0,0,1-1.54-1.54V125a1.54,1.54,0,0,1,1.54-1.54h0a1.54,1.54,0,0,1,1.54,1.54v13.18A1.54,1.54,0,0,1,1012.53,139.67Z"/><path class="cls-13" d="M1052.75,129.8h0a1.55,1.55,0,0,0,1.55-1.54V115.08a1.55,1.55,0,0,0-1.55-1.54h0a1.55,1.55,0,0,0-1.54,1.54v13.18A1.55,1.55,0,0,0,1052.75,129.8Z"/><path class="cls-13" d="M1045.35,134.57h0a1.55,1.55,0,0,0,1.55-1.54V119.85a1.55,1.55,0,0,0-1.55-1.54h0a1.55,1.55,0,0,0-1.54,1.54V133A1.55,1.55,0,0,0,1045.35,134.57Z"/><path class="cls-13" d="M1037.65,137.47h0a1.55,1.55,0,0,0,1.54-1.54V122.75a1.55,1.55,0,0,0-1.54-1.54h0a1.54,1.54,0,0,0-1.54,1.54v13.18A1.54,1.54,0,0,0,1037.65,137.47Z"/><path class="cls-13" d="M1028.94,139.67h0a1.54,1.54,0,0,0,1.54-1.54V125a1.54,1.54,0,0,0-1.54-1.54h0a1.54,1.54,0,0,0-1.54,1.54v13.18A1.54,1.54,0,0,0,1028.94,139.67Z"/><path class="cls-13" d="M1021,140.79h0a1.56,1.56,0,0,1-1.54-1.55V126.06a1.55,1.55,0,0,1,1.54-1.54h0a1.56,1.56,0,0,1,1.55,1.54v13.18A1.56,1.56,0,0,1,1021,140.79Z"/><path class="cls-14" d="M1253.2,472.32l-149.67-87.54c-2.18-1.28-1.26-3.94,2-5.92l75.35-45.2c3.3-2,7.78-2.56,10-1.28l149.67,87.54c2.18,1.27,1.27,3.93-2,5.91L1263.16,471C1259.86,473,1255.38,473.59,1253.2,472.32Z"/><path class="cls-15" d="M1246,369.08l-150.16-86.7c-2.19-1.26-1.91-3.48.61-4.94l57.67-33.3c2.53-1.45,6.38-1.61,8.57-.35l150.16,86.7c2.19,1.26,1.91,3.48-.61,4.94l-57.67,33.3C1252.07,370.18,1248.22,370.34,1246,369.08Z"/><path class="cls-16" d="M1311.9,435.33l-60.59,35c-2.48,1.43-4.54-.48-4.58-4.24l-.84-89.54c0-3.76,2-8,4.45-9.45l60.59-35c2.48-1.43,4.54.47,4.57,4.23l.85,89.55C1316.39,429.65,1314.38,433.9,1311.9,435.33Z"/><path class="cls-17" d="M1249.78,369.93c34.45-6.94,65.73-33.62,65.73-33.62,0-3.77-2.09-5.67-4.58-4.24l-60.59,35c-2.48,1.43-4.48,5.68-4.44,9.44l.08,8.82C1246.38,382,1247.62,371.18,1249.78,369.93Z"/><path class="cls-17" d="M1250.27,470.72a2.49,2.49,0,0,1-1.51-2.19V371c0-1.25,1.53-2.27,3.39-2.27h0c1.87,0,3.39-1.25,3.39,0v99.13S1250.79,470.94,1250.27,470.72Z"/><path class="cls-18" d="M1248.05,470.85,1097.79,384.1c-2-1.13-3.56-4.18-3.56-6.8V281.39c0-2.62,1.59-3.83,3.56-2.69l150.26,86.75c2,1.13,3.56,4.18,3.56,6.8v95.91C1251.61,470.78,1250,472,1248.05,470.85Z"/><path class="cls-19" d="M1106.73,333.53a5.61,5.61,0,0,0,2.8,4.79L1196,389.14a5.48,5.48,0,0,0,8.41-4.49v-4.34a5.6,5.6,0,0,0-2.81-4.79l-86.44-50.82a5.47,5.47,0,0,0-8.4,4.49Z"/><path class="cls-15" d="M1108,355.65l57.27,33.67a2.49,2.49,0,0,0,3.83-2,2.56,2.56,0,0,0-1.27-2.19l-57.27-33.67a2.5,2.5,0,0,0-3.83,2.05A2.54,2.54,0,0,0,1108,355.65Z"/><path class="cls-15" d="M1158,394.46a1.26,1.26,0,0,0-.62-1.07l-48.74-28.66a1.22,1.22,0,0,0-1.87,1,1.25,1.25,0,0,0,.62,1.07l48.74,28.65A1.22,1.22,0,0,0,1158,394.46Z"/><path class="cls-15" d="M1126.33,319.22a1.22,1.22,0,0,0,1.87-1,1.24,1.24,0,0,0-.62-1.06l-19-11.16a1.22,1.22,0,0,0-1.87,1,1.23,1.23,0,0,0,.62,1.06Z"/><path class="cls-20" d="M1192.47,713.14h112.59"/><path class="cls-20" d="M1231.44,72.86H1344"/><path class="cls-20" d="M472.14,729.5h46.33"/><path class="cls-21" d="M1325.05,643.89a7.06,7.06,0,1,1-7.06-7.06A7.06,7.06,0,0,1,1325.05,643.89Z"/><path class="cls-21" d="M1157.13,83.54a7.06,7.06,0,1,1-7.06-7.05A7.06,7.06,0,0,1,1157.13,83.54Z"/><path class="cls-21" d="M613.17,520a7.06,7.06,0,1,1-7.06-7.06A7.06,7.06,0,0,1,613.17,520Z"/><path class="cls-22" d="M1303.61,288.64l-47.9-27.83c-4.71-2.73-8.52-8.87-8.52-13.69V198c0-4.83,3.81-6.53,8.52-3.79l47.9,27.83c4.7,2.73,8.52,8.86,8.52,13.69v49.12C1312.13,289.68,1308.31,291.38,1303.61,288.64Z"/><path class="cls-19" d="M1289,234.85c-5-7.39-12.54-11.33-16.93-8.8s-3.95,10.56,1,17.95,12.54,11.33,16.93,8.8S1294,242.24,1289,234.85Zm-1.38,14.47c-3.23,1.85-8.78-1-12.42-6.45s-4-11.32-.74-13.17,8.78,1,12.42,6.45S1290.88,247.47,1287.66,249.32Z"/><path class="cls-19" d="M1261.64,251.4h0c-.77-1.16-.82-2.42-.12-2.8l7.87-4.25c.7-.37,1.9.27,2.67,1.43h0c.76,1.17.82,2.43.12,2.81l-7.87,4.24C1263.61,253.21,1262.4,252.57,1261.64,251.4Z"/><path class="cls-22" d="M1221.24,241.83,1173.35,214c-4.71-2.73-8.53-8.86-8.53-13.69V151.19c0-4.83,3.82-6.53,8.53-3.79l47.89,27.83c4.71,2.73,8.53,8.86,8.53,13.69V238C1229.77,242.87,1226,244.57,1221.24,241.83Z"/><path class="cls-19" d="M1204.37,195.7l-7.77-17.86-7.53,10.27a5.78,5.78,0,0,0-2.11,4.24l0,.1,0,0a7.62,7.62,0,0,0,0,.85c0,5.88,4.65,13.35,10.38,16.68s10.38,1.26,10.38-4.62A18.64,18.64,0,0,0,1204.37,195.7Z"/><path class="cls-23" d="M1232.07,512.46a14.61,14.61,0,0,0-3.42-2.59L972.19,367.48c-9.22-5.12-25.43-4-36.22,2.61l-353.41,215a27.51,27.51,0,0,0-3.26,2.31l-1.62,1.27a10.48,10.48,0,0,0-4,8.42l0,1.55c.45,2.91,2.42,5.59,6,7.59L836.17,748.6c9.22,5.12,25.44,3.95,36.22-2.61l353.42-215c5.6-3.41,8.61-7.59,8.94-11.55l-.67-3.92Z"/><polygon class="cls-24" points="852.02 719.04 605.46 582.15 959.77 372 1206.33 508.9 852.02 719.04"/><path class="cls-23" d="M1145.36,457.1l-8.43-4.68h0c9.94-5.9,9.94-15.15,0-20.67l-45.66-25.35c-9.93-5.52-26-5.21-36,.68l-5.66-3.14c-10.35-5.75-27.12-5.43-37.46.71h0c-10.35,6.13-10.35,15.76,0,21.51l95.74,53.16c10.35,5.74,27.12,5.42,37.47-.71h0C1155.71,472.47,1155.71,462.84,1145.36,457.1Z"/><path class="cls-25" d="M1145.36,449l-8.43-4.68h0c9.94-5.9,9.94-15.15,0-20.67l-45.66-25.35c-9.93-5.52-26-5.21-36,.68l-5.66-3.14c-10.35-5.75-27.12-5.43-37.46.71h0c-10.35,6.13-10.35,15.76,0,21.51l95.74,53.16c10.35,5.74,27.12,5.42,37.47-.71h0C1155.71,464.35,1155.71,454.72,1145.36,449Z"/><path class="cls-26" d="M1119.2,447.57l-69.91-40a3.84,3.84,0,0,1-.11-6.55h0a3.86,3.86,0,0,1,4.07-.15l69.91,40a3.85,3.85,0,0,1,.12,6.56h0A3.92,3.92,0,0,1,1119.2,447.57Z"/><line class="cls-27" x1="981.87" y1="475.6" x2="1046.27" y2="511.5"/><line class="cls-27" x1="958.21" y1="488.72" x2="1067.1" y2="548.57"/><polygon class="cls-28" points="921.99 471.2 879.93 447.93 921.85 423.61 963.92 446.88 921.99 471.2"/><polyline class="cls-29" points="912.73 438.99 909.71 451.58 939.48 448.46"/><line class="cls-27" x1="897.88" y1="539.39" x2="962.28" y2="575.3"/><line class="cls-27" x1="874.23" y1="552.51" x2="983.11" y2="612.37"/><line class="cls-27" x1="802.62" y1="585.21" x2="867.02" y2="621.11"/><line class="cls-27" x1="780.64" y1="605.83" x2="889.53" y2="665.68"/><polygon class="cls-28" points="737.12 581.14 695.06 557.87 736.99 533.55 779.05 556.82 737.12 581.14"/><polyline class="cls-29" points="727.87 548.93 724.85 561.52 754.61 558.4"/><polygon class="cls-28" points="829.26 526.03 787.2 502.76 829.12 478.44 871.18 501.71 829.26 526.03"/><polyline class="cls-29" points="820 493.82 816.98 506.41 846.74 503.29"/><path class="cls-14" d="M758,444.13c0,5-7.47,9.13-16.69,9.13s-16.7-4.09-16.7-9.13,7.48-9.13,16.7-9.13S758,439.09,758,444.13Z"/><path class="cls-14" d="M790.7,412.5h0l-.3-.38h0l-3.32-4.18h0l-.43-.54,0,0c-1.67-1.7-4.35-2.54-7.75-2.15-7.46.84-15.54,7.26-18,14.34-1.14,3.22-.93,6,.35,8l0,0,4.06,5.11h0c1.67,1.79,4.41,2.69,7.9,2.29,7.46-.84,15.54-7.27,18-14.34C792.33,417.4,792.07,414.53,790.7,412.5Z"/><path class="cls-14" d="M905.11,364.74l-86.79,47.31c-.87-.59-1.51-.94-1.51-.94L782.71,405l-.8,15.5s14,10.36,29.84,6.16c7.18,1.29,13.49-.44,18.16-4.86l78.19-43.58a17.59,17.59,0,0,0,4-1.95C919.34,371.58,912.63,360.64,905.11,364.74Z"/><path class="cls-30" d="M911.86,346.64c1.25-24.23-14.24-54.57-34.6-67.77-9.69-6.29-18.74-7.55-25.7-4.53h0a17.8,17.8,0,0,0-2.17,1.12L762.92,319.2l55.63,96.21L897,371.69h0C905.45,368.84,911.16,360.1,911.86,346.64Z"/><ellipse class="cls-31" cx="788.98" cy="368.76" rx="32.21" ry="55.79" transform="translate(-81.4 399.08) rotate(-27.05)"/><ellipse class="cls-32" cx="781.77" cy="372.79" rx="26.55" ry="45.9" transform="translate(-84.08 393.5) rotate(-26.86)"/><ellipse class="cls-33" cx="874.3" cy="322.16" rx="26.55" ry="45.9" transform="translate(-51.22 429.85) rotate(-26.86)"/><path class="cls-34" d="M788,333.37c-9.9-6.41-19-6.87-25.4-2.43,4.42.29,9.3,2,14.4,5.32,17.92,11.62,31.56,38.33,30.46,59.67-.5,9.56-3.87,16.41-9.06,20,11.14.74,19.27-7.63,20.06-22.91C819.6,371.71,806,345,788,333.37Z"/><path class="cls-35" d="M784.05,410.63C766.12,399,752.48,372.29,753.59,351c.49-9.56,3.87-16.41,9-20-11.13-.74-19.27,7.63-20,22.91-1.11,21.33,12.53,48,30.46,59.66,9.89,6.42,19,6.88,25.39,2.44C794,415.65,789.14,413.93,784.05,410.63Z"/><path class="cls-36" d="M849.32,297.4l-45.74,24.35a7.09,7.09,0,0,1-9.56-2.91h0a7.08,7.08,0,0,1,2.92-9.56l45.74-24.36a7.1,7.1,0,0,1,9.56,2.92h0A7.09,7.09,0,0,1,849.32,297.4Z"/><path class="cls-18" d="M799,413.85c-6.81,3.16-17.06,1.87-22.88-2.88s-5-11.14,1.8-14.29,17.06-1.86,22.88,2.88S805.76,410.7,799,413.85Z"/><rect class="cls-18" x="772.46" y="399.26" width="32.6" height="6.52" transform="translate(56.48 -95.4) rotate(7.18)"/><path class="cls-26" d="M799.62,408.57c-6.82,3.15-17.06,1.86-22.88-2.89s-5-11.14,1.8-14.29,17.06-1.86,22.87,2.88S806.43,405.41,799.62,408.57Z"/><ellipse class="cls-18" cx="789.17" cy="399.29" rx="7.45" ry="11.92" transform="translate(294.38 1132.36) rotate(-82.82)"/><path class="cls-18" d="M783.06,420.38c-2.51,7.07-10.59,13.5-18,14.34s-11.47-4.2-9-11.28,10.58-13.49,18-14.34S785.57,413.3,783.06,420.38Z"/><rect class="cls-18" x="751.53" y="416.48" width="32.6" height="6.52" transform="translate(-94.44 568.86) rotate(-38.47)"/><path class="cls-26" d="M779.74,416.21c-2.51,7.07-10.59,13.49-18,14.34s-11.47-4.2-9-11.28,10.59-13.5,18-14.34S782.25,409.13,779.74,416.21Z"/><path class="cls-18" d="M775.68,416.07c-1.84,5.18-7.75,9.87-13.2,10.49s-8.39-3.07-6.56-8.25,7.75-9.87,13.2-10.49S777.51,410.9,775.68,416.07Z"/><path class="cls-18" d="M777.05,392.16c-7.31-1.72-14.57-9.06-16.23-16.38s2.93-11.86,10.24-10.14,14.57,9.06,16.22,16.38S784.35,393.88,777.05,392.16Z"/><rect class="cls-18" x="759.72" y="373.69" width="32.6" height="6.52" transform="translate(497.75 -439.67) rotate(45.27)"/><path class="cls-26" d="M780.84,388.41c-7.31-1.72-14.57-9.06-16.23-16.38s2.93-11.86,10.24-10.14,14.57,9.06,16.22,16.38S788.14,390.13,780.84,388.41Z"/><path class="cls-18" d="M780.53,384.36c-5.35-1.26-10.66-6.63-11.87-12s2.14-8.68,7.49-7.42,10.65,6.63,11.86,12S785.87,385.62,780.53,384.36Z"/><path class="cls-18" d="M743.55,449.65c-6.28,4.12-16.6,4.34-23,.5s-6.59-10.29-.31-14.4,16.59-4.34,23-.5S749.83,445.54,743.55,449.65Z"/><rect class="cls-18" x="715.5" y="436.67" width="32.6" height="6.52" transform="translate(-9.32 15.9) rotate(-1.24)"/><path class="cls-26" d="M743.43,444.32c-6.28,4.12-16.6,4.34-23,.5s-6.59-10.29-.31-14.4,16.6-4.34,23-.5S749.71,440.21,743.43,444.32Z"/><path class="cls-18" d="M740.28,441.76c-4.59,3-12.14,3.17-16.86.36s-4.82-7.52-.23-10.53,12.14-3.17,16.86-.37S744.87,438.75,740.28,441.76Z"/><ellipse class="cls-3" cx="1300.5" cy="574.08" rx="30.29" ry="16.3"/><path class="cls-37" d="M1317.78,557c0-11.71.21-47.95.21-48.7,0-5.37-2.71-10.26-7.2-14-1.56-1.35-6.32-2-6.74-8.18,0,0-28-7-27.51-1.32.4,4.76-8.27,7-10.76,9.5-4.49,3.77-7.21,8.66-7.21,14v53.11h.12a14.4,14.4,0,0,0-.12,1.86c0,11.87,13.31,21.5,29.71,21.5.71,0,1.42,0,2.11-.06,15.43-.78,27.6-10.08,27.6-21.44,0-.35,0-.69,0-1Z"/><path class="cls-38" d="M1313,523.35c0,5.72-7.66,10.53-18.08,12h-13.18c-10.41-1.45-18-6.26-18-12v31.09h.09c-.06.63-.09,1.26-.09,1.9,0,12.19,11,22.07,24.65,22.07s24.66-9.88,24.66-22.07a18.83,18.83,0,0,0-.19-2.72S1313,524.27,1313,523.35Z"/><path class="cls-39" d="M1313,524.36c0,7.36-11,13.32-24.66,13.32s-24.65-6-24.65-13.32,11-13.33,24.65-13.33S1313,517,1313,524.36Z"/><path class="cls-23" d="M1308.31,479.33c-.3,1.07-.06,2.18-.56,3.28a11.17,11.17,0,0,1-.67.91l-.08.18.08-.18c-3.38,4-10.77,6.72-19.35,6.72-11.77,0-21.21-3.19-21.21-9.58l-.1,9.15v3.6c0,6.4,9.54,11.58,21.31,11.58a39.07,39.07,0,0,0,4.52-.27c9.6-1.12,16.79-5.76,16.79-11.31v-3.6h0V481C1309,481.22,1308.33,479.11,1308.31,479.33Z"/><path class="cls-40" d="M1309,480.77c0,6.11-9.52,11.06-21.26,11.06s-21.26-4.95-21.26-11.06,9.52-11,21.26-11S1309,474.67,1309,480.77Z"/><path class="cls-41" d="M1301,480.77c0,3.8-5.92,6.88-13.23,6.88s-13.23-3.08-13.23-6.88,5.93-6.87,13.23-6.87S1301,477,1301,480.77Z"/><rect class="cls-37" x="1266.52" y="525.63" width="6.14" height="38.21" rx="1.53"/><path class="cls-3" d="M1248.53,624.78c-2.79-7.7-11.56-11.28-19.59-8l-.29.12h0l-15,6.1a13.58,13.58,0,0,0-1.7.57l-.28.13h0l-5.52,2.25h0L1045.6,691.56a4.31,4.31,0,0,0-1.33.39l-13.89,16.6h0l-13,13.79,22.65-1.93h0l17.55-1a6.61,6.61,0,0,0,1.53-1.81l.39.65L1209.57,657a11.39,11.39,0,0,1-1.91,1.11l-.29.11h0l7.41-2.93h0l.28-.11a15.54,15.54,0,0,0,1.83-.9l5.21-2h0l.29-.11a11.48,11.48,0,0,0,3-1.88l13.36-5.45h0l.29-.11C1247.07,641.38,1251.32,632.48,1248.53,624.78Z"/><path class="cls-23" d="M1227.47,611.69l-.29.12h0l-28.79,11.74c-8,3.28-12.28,12.18-9.49,19.88s11.56,11.28,19.59,8l28.8-11.75h0l.29-.11c8-3.27,12.28-12.17,9.49-19.87S1235.5,608.42,1227.47,611.69Z"/><path class="cls-23" d="M1237.57,639.57,1058,713.14l-8.65-14.71,174.8-71.61C1250.44,616.2,1252.78,631.57,1237.57,639.57Z"/><path class="cls-23" d="M1049.35,698.43c-1.35-7.28-6.86-2.43-5.43-11.86l163.95-67c12-1.55,16.14,1.68,17,7Z"/><path class="cls-42" d="M1042.8,686.87,1018,716.53l38.11-2.23C1064.79,707.1,1051.06,682.82,1042.8,686.87Z"/><path class="cls-23" d="M1015.88,717.26l13-13.79c6.49,1.51,9.71,5.46,9.62,11.86Z"/><path class="cls-3" d="M689.05,694.16,585.91,637c-12-6.67-32.82-5.44-46.44,2.74h0c-13.62,8.18-14.9,20.22-2.87,26.89l3.38,1.87h0l76.11,42.18,23.65,13.11c12,6.66,32.83,5.44,46.44-2.75h0C699.8,712.87,701.08,700.83,689.05,694.16Z"/><path class="cls-26" d="M625.19,721.23,522.06,664.08c-12-6.67-10.75-18.71,2.86-26.9h0c13.62-8.18,34.41-9.41,46.45-2.74L674.5,691.6c12,6.66,10.75,18.7-2.86,26.89h0C658,726.67,637.22,727.9,625.19,721.23Z"/><path class="cls-43" d="M682.29,700.19c.46,5.47-4.91,12.37-12.07,16.67h0c-13.62,8.19-36.56,7.72-50.46,0l-96.39-53.42c-4.58-2.54-7.67-5.65-9.27-9,.42,4.93,3.93,9.75,10.52,13.4L621,721.32c13.9,7.7,36.2,7.3,49.82-.88h0C680,715,685.54,706.92,682.29,700.19Z"/><polygon class="cls-19" points="601.13 699.06 561.42 677.05 598.55 654.73 638.26 676.74 601.13 699.06"/><path class="cls-44" d="M561.7,642.79a9.51,9.51,0,0,1-8.6.15c-2.4-1.33-2.44-3.55-.09-5a9.51,9.51,0,0,1,8.6-.15C564,639.15,564.05,641.37,561.7,642.79Z"/><path class="cls-44" d="M538.77,656.57a9.51,9.51,0,0,1-8.6.15c-2.4-1.33-2.44-3.55-.09-5a9.51,9.51,0,0,1,8.6-.16C541.08,652.93,541.12,655.16,538.77,656.57Z"/><path class="cls-44" d="M584.8,655.58a9.48,9.48,0,0,1-8.6.16c-2.4-1.33-2.44-3.56-.09-5a9.51,9.51,0,0,1,8.6-.15C587.11,652,587.15,654.17,584.8,655.58Z"/><path class="cls-44" d="M562,656a9.51,9.51,0,0,1-8.6.15c-2.4-1.33-2.44-3.55-.09-5A9.51,9.51,0,0,1,562,651C564.35,652.31,564.39,654.54,562,656Z"/><path class="cls-44" d="M561.86,669.37a9.51,9.51,0,0,1-8.6.15c-2.4-1.33-2.44-3.55-.09-5a9.53,9.53,0,0,1,8.61-.15C564.17,665.73,564.21,668,561.86,669.37Z"/><path class="cls-44" d="M648.42,690.84a9.51,9.51,0,0,1-8.6.15c-2.4-1.33-2.44-3.55-.09-5a9.48,9.48,0,0,1,8.6-.15C650.73,687.2,650.77,689.43,648.42,690.84Z"/><path class="cls-44" d="M625.46,704.61a9.48,9.48,0,0,1-8.6.15c-2.4-1.33-2.44-3.55-.09-5a9.48,9.48,0,0,1,8.6-.15C627.77,701,627.81,703.2,625.46,704.61Z"/><path class="cls-44" d="M671.51,703.64a9.51,9.51,0,0,1-8.6.15c-2.4-1.33-2.44-3.55-.09-5a9.51,9.51,0,0,1,8.6-.15C673.82,700,673.86,702.23,671.51,703.64Z"/><path class="cls-44" d="M648.73,704a9.51,9.51,0,0,1-8.6.15c-2.4-1.33-2.44-3.55-.09-5a9.51,9.51,0,0,1,8.6-.16C651,700.35,651.08,702.58,648.73,704Z"/><path class="cls-44" d="M648.56,717.41a9.53,9.53,0,0,1-8.61.15c-2.39-1.33-2.43-3.55-.08-5a9.51,9.51,0,0,1,8.6-.16C650.87,713.77,650.91,716,648.56,717.41Z"/><path class="cls-26" d="M603.88,666.16a9.51,9.51,0,0,1-8.6.15c-2.4-1.33-2.44-3.55-.09-5a9.48,9.48,0,0,1,8.6-.15C606.19,662.52,606.23,664.75,603.88,666.16Z"/><path class="cls-26" d="M580.92,679.93a9.48,9.48,0,0,1-8.6.15c-2.4-1.33-2.43-3.55-.08-5a9.48,9.48,0,0,1,8.6-.15C583.24,676.3,583.28,678.52,580.92,679.93Z"/><path class="cls-26" d="M627,679a9.51,9.51,0,0,1-8.6.15c-2.4-1.33-2.44-3.55-.09-5a9.51,9.51,0,0,1,8.6-.15C629.29,675.32,629.33,677.55,627,679Z"/><path class="cls-26" d="M604.2,679.31a9.51,9.51,0,0,1-8.6.15c-2.4-1.33-2.44-3.55-.09-5a9.51,9.51,0,0,1,8.6-.16C606.51,675.67,606.55,677.9,604.2,679.31Z"/><path class="cls-26" d="M604,692.73a9.51,9.51,0,0,1-8.6.15c-2.4-1.33-2.44-3.55-.09-5a9.51,9.51,0,0,1,8.6-.16C606.33,689.09,606.37,691.32,604,692.73Z"/></g></g></svg>